<svg xmlns="http://www.w3.org/2000/svg" viewBox="0 0 128 128">
  <path fill="#6DB33F" d="M116.452 6.643a59.104 59.104 0 01-6.837 12.136A64.249 64.249 0 0064.205-.026C28.984-.026 0 28.958 0 64.179c0 35.221 28.984 64.205 64.205 64.205 35.221 0 64.205-28.984 64.205-64.205 0-9.46-2.06-18.445-5.76-26.53a54.248 54.248 0 01-6.198 13.994"/>
  <path fill="#fff" d="M109.093 26.234a48.475 48.475 0 01-7.296 10.337c-14.309 15.064-37.392 16.079-51.587 2.269-14.195-13.81-14.195-36.196 0-50.006 3.258-3.169 7.019-5.658 11.096-7.357a57.186 57.186 0 00-32.103 17.406c-15.064 15.064-15.064 39.488 0 54.552 15.064 15.064 39.488 15.064 54.552 0a38.53 38.53 0 0010.337-16.294 38.53 38.53 0 003.169-10.907z"/>
  <path fill="#6DB33F" d="M64.205 88.73c-13.536 0-24.535-10.999-24.535-24.535s10.999-24.535 24.535-24.535 24.535 10.999 24.535 24.535-10.999 24.535-24.535 24.535zm0-40.972c-9.076 0-16.437 7.361-16.437 16.437s7.361 16.437 16.437 16.437 16.437-7.361 16.437-16.437-7.361-16.437-16.437-16.437z"/>
</svg>